<?xml version='1.0' encoding='iso-8859-1'?>
<svg version="1.1" xmlns="http://www.w3.org/2000/svg" viewBox="0 0 32 32" xmlns:xlink="http://www.w3.org/1999/xlink" enable-background="new 0 0 32 32">
  <g>
    <path d="m13,19c0,1.5 1.1,2.7 2.6,3 0.1,0 0.3,0 0.4,0l0,0 0,0c0.1,0 0.3,0 0.4,0 1.4-0.2 2.6-1.5 2.6-3 0-3.2-2-6.2-2-9.4 0-0.3 0-0.5 0-0.6 0-2.2 0.5-4.4 1-6.6 0.1-0.3 0.1-0.6 0-0.9-0.2-0.7-0.8-1.3-1.5-1.5-0.1,0-0.3,0-0.4,0v0.1-0.1c-0.1,0-0.3,0-0.4,0-0.7,0.2-1.3,0.7-1.5,1.5-0.1,0.3-0.1,0.6 0,0.9 0.4,2.2 1,4.4 1,6.6 0,0.1 0,0.3 0,0.6-0.2,3.2-2.2,6.2-2.2,9.4z"/>
    <circle cx="16" cy="29" r="3"/>
  </g>
</svg>
